<svg width="243" height="97" viewBox="0 0 243 97" fill="none" xmlns="http://www.w3.org/2000/svg">
<path d="M102.551 70V17.6364H113.622V60.8722H136.071V70H102.551ZM153.764 70H141.901L159.977 17.6364H174.244L192.295 70H180.432L167.315 29.6023H166.906L153.764 70ZM153.023 49.4176H181.045V58.0597H153.023V49.4176ZM198.598 70V17.6364H219.564C223.416 17.6364 226.629 18.2074 229.203 19.3494C231.777 20.4915 233.712 22.0767 235.007 24.1051C236.303 26.1165 236.95 28.4347 236.95 31.0597C236.95 33.1051 236.541 34.9034 235.723 36.4545C234.905 37.9886 233.78 39.25 232.348 40.2386C230.933 41.2102 229.314 41.9006 227.49 42.3097V42.821C229.484 42.9062 231.351 43.4687 233.089 44.5085C234.845 45.5483 236.268 47.0057 237.359 48.8807C238.45 50.7386 238.996 52.9545 238.996 55.5284C238.996 58.3068 238.305 60.7869 236.925 62.9688C235.561 65.1335 233.541 66.8466 230.865 68.108C228.189 69.3693 224.891 70 220.97 70H198.598ZM209.669 60.9489H218.695C221.78 60.9489 224.03 60.3608 225.445 59.1847C226.859 57.9915 227.567 56.4062 227.567 54.429C227.567 52.9801 227.217 51.7017 226.518 50.5938C225.82 49.4858 224.822 48.6165 223.527 47.9858C222.249 47.3551 220.723 47.0398 218.95 47.0398H209.669V60.9489ZM209.669 39.5483H217.876C219.393 39.5483 220.74 39.2841 221.916 38.7557C223.109 38.2102 224.047 37.4432 224.729 36.4545C225.428 35.4659 225.777 34.2812 225.777 32.9006C225.777 31.0085 225.104 29.483 223.757 28.3239C222.428 27.1648 220.536 26.5852 218.081 26.5852H209.669V39.5483Z" fill="#EFEFEF"/>
<path d="M15.904 34.39L14.056 28.384L28.63 13.6H37.072L15.904 34.39ZM10.696 43V13.6H17.836V43H10.696ZM29.554 43L18.634 28.636L23.464 24.478L37.87 43H29.554Z" fill="url(#paint0_linear_869_448)"/>
<path d="M62.086 43.252C59.65 43.252 57.48 42.762 55.576 41.782C53.672 40.774 52.174 39.402 51.082 37.666C50.018 35.93 49.486 33.942 49.486 31.702V13.6H56.71V31.324C56.71 32.388 56.948 33.354 57.424 34.222C57.9 35.062 58.544 35.734 59.356 36.238C60.168 36.714 61.078 36.952 62.086 36.952C63.15 36.952 64.088 36.714 64.9 36.238C65.74 35.734 66.412 35.062 66.916 34.222C67.42 33.354 67.672 32.388 67.672 31.324V13.6H74.644V31.702C74.644 33.942 74.098 35.93 73.006 37.666C71.942 39.402 70.458 40.774 68.554 41.782C66.65 42.762 64.494 43.252 62.086 43.252Z" fill="url(#paint1_linear_869_448)"/>
<path d="M10.696 80V50.6H23.674C25.69 50.6 27.398 50.894 28.798 51.482C30.198 52.042 31.248 52.868 31.948 53.96C32.676 55.024 33.04 56.312 33.04 57.824C33.04 59.504 32.62 60.918 31.78 62.066C30.968 63.214 29.778 63.984 28.21 64.376L28.126 63.578C29.442 63.858 30.576 64.348 31.528 65.048C32.508 65.748 33.264 66.616 33.796 67.652C34.328 68.66 34.594 69.808 34.594 71.096C34.594 72.58 34.342 73.882 33.838 75.002C33.334 76.094 32.606 77.018 31.654 77.774C30.702 78.53 29.582 79.09 28.294 79.454C27.034 79.818 25.634 80 24.094 80H10.696ZM17.416 74.036H23.842C24.626 74.036 25.284 73.91 25.816 73.658C26.376 73.406 26.81 73.042 27.118 72.566C27.426 72.062 27.58 71.46 27.58 70.76C27.58 70.116 27.412 69.57 27.076 69.122C26.768 68.674 26.32 68.338 25.732 68.114C25.144 67.862 24.444 67.736 23.632 67.736H17.416V74.036ZM17.416 62.402H22.666C23.394 62.402 24.01 62.29 24.514 62.066C25.046 61.814 25.438 61.478 25.69 61.058C25.97 60.61 26.11 60.078 26.11 59.462C26.11 58.566 25.802 57.866 25.186 57.362C24.57 56.83 23.646 56.564 22.414 56.564H17.416V62.402Z" fill="url(#paint2_linear_869_448)"/>
<path d="M51.696 80V50.6H72.192V56.69H58.626V73.91H72.612V80H51.696ZM55.056 67.946V62.15H70.302V67.946H55.056Z" fill="url(#paint3_linear_869_448)"/>
<rect x="0.5" y="4.5" width="84" height="84" stroke="#EFEFEF"/>
<defs>
<linearGradient id="paint0_linear_869_448" x1="7" y1="27.5" x2="39" y2="27.5" gradientUnits="userSpaceOnUse">
<stop stop-color="#FD2D00"/>
<stop offset="1" stop-color="#DF007C"/>
</linearGradient>
<linearGradient id="paint1_linear_869_448" x1="46" y1="27.5" x2="79" y2="27.5" gradientUnits="userSpaceOnUse">
<stop stop-color="#FD2D00"/>
<stop offset="1" stop-color="#DF007C"/>
</linearGradient>
<linearGradient id="paint2_linear_869_448" x1="7" y1="64.5" x2="37" y2="64.5" gradientUnits="userSpaceOnUse">
<stop stop-color="#FD2D00"/>
<stop offset="1" stop-color="#DF007C"/>
</linearGradient>
<linearGradient id="paint3_linear_869_448" x1="48" y1="64.5" x2="76" y2="64.5" gradientUnits="userSpaceOnUse">
<stop stop-color="#FD2D00"/>
<stop offset="1" stop-color="#DF007C"/>
</linearGradient>
</defs>
</svg>
